<?xml version="1.0" encoding="utf-8"?>
<!-- Generator: Adobe Illustrator 20.1.0, SVG Export Plug-In . SVG Version: 6.00 Build 0)  -->
<svg version="1.1" id="Layer_1" xmlns="http://www.w3.org/2000/svg" xmlns:xlink="http://www.w3.org/1999/xlink" x="0px" y="0px"
	 viewBox="0 0 759.7 451.3" style="enable-background:new 0 0 759.7 451.3;" xml:space="preserve">
<style type="text/css">
	.st0{fill:#512D88;}
</style>
<g>
	<circle class="st0" cx="467.5" cy="309.6" r="8.3"/>
	<circle class="st0" cx="519.4" cy="344.3" r="8.3"/>
	<circle class="st0" cx="208.8" cy="326.8" r="8.3"/>
	<circle class="st0" cx="275.1" cy="338.1" r="8.3"/>
	<circle class="st0" cx="550.5" cy="252.8" r="8.3"/>
	<path class="st0" d="M346.9,201.9l-6.1-3.4c-0.1,0-0.1-0.1-0.2-0.1c0,0-0.1,0-0.1,0c-0.1,0-0.2,0.1-0.3,0.2l-18.8,33.5
		c-0.1,0.2,0,0.5,0.2,0.6l0,0l6.1,3.4c0.2,0.1,0.5,0,0.6-0.2l18.8-33.5C347.1,202.3,347.1,202,346.9,201.9z"/>
	<circle class="st0" cx="520.3" cy="197.6" r="8.3"/>
	<polygon class="st0" points="139.5,202.3 139.5,189 124,195.7 	"/>
	<circle class="st0" cx="487.1" cy="113.3" r="8.3"/>
	<circle class="st0" cx="241.9" cy="253.8" r="8.3"/>
	<circle class="st0" cx="291.8" cy="140.6" r="8.3"/>
	<path class="st0" d="M346.8,243.2c-0.4-0.3-0.9-0.5-1.4-0.5c-0.7,0-1.4,0.3-1.8,0.9l-2,2.6c-0.4,0.5-0.5,1.1-0.5,1.7
		c0.1,0.6,0.4,1.1,0.9,1.5l0,0c0.5,0.4,1.1,0.5,1.7,0.5c0.6-0.1,1.1-0.4,1.5-0.9l2-2.6C348,245.4,347.8,244,346.8,243.2z"/>
	<circle class="st0" cx="239.9" cy="105.8" r="8.3"/>
	<circle class="st0" cx="208.8" cy="197.3" r="8.3"/>
	<path class="st0" d="M129.6,225.5c-1.1-0.5-2.3-0.8-3.6-0.8c-1.2,0-2.4,0.3-3.6,0.8c-1.1,0.5-2,1.2-2.7,2c-0.7,0.8-1,1.7-1,2.5
		v11.6h14.7v-11.6c0-0.8-0.4-1.7-1.1-2.5C131.6,226.6,130.7,226,129.6,225.5z"/>
	<path class="st0" d="M287.4,225.6l92.5,92.5l92.5-92.5l-92.5-92.5L287.4,225.6z M396.5,203.8c3.6,1.2,8.1,1.5,10.9,1.1
		c-1.4-3-0.2-6.6,2.7-8.3l6.1-3.4c3.1-1.7,7-0.6,8.8,2.5l18.8,33.5c0.8,1.5,1,3.2,0.6,4.9c-0.5,1.7-1.5,3-3,3.9l-6.1,3.4
		c-1,0.6-2.1,0.8-3.1,0.8c-2.2,0-4.4-1.2-5.6-3.3c-1.6,1.7-3.3,3.2-5.2,4.5c1.1,2.5,0.9,5.4-0.7,7.8l-0.2,0.3
		c-1.2,1.8-3.1,3-5.2,3.4c-0.5,0.1-1,0.1-1.5,0.1c-0.1,0-0.2,0-0.3,0c-0.2,1.1-0.6,2.2-1.3,3.2l-0.2,0.3c-1.5,2.1-3.8,3.3-6.2,3.5
		c-0.1,1.3-0.6,2.6-1.4,3.7l-0.2,0.3c-1.2,1.8-3.1,3-5.2,3.4c-0.5,0.1-1,0.1-1.5,0.1c-0.5,0-1.1-0.1-1.6-0.2c-0.2,0.5-0.5,1-0.8,1.4
		l-0.2,0.3c-1.4,2-4.5,2.8-8.1,2.8c-3.7,0-7.8-0.9-11.1-2.2l-0.3,0.3c-1.6,2.1-4.1,3.3-6.6,3.3c-1.8,0-3.5-0.6-5-1.7l0,0
		c-1.3-1-2.2-2.3-2.8-3.8c-0.1,0-0.2,0-0.3,0.1c-0.4,0-0.7,0.1-1.1,0.1c-1.8,0-3.6-0.6-5-1.7c-1.4-1.1-2.4-2.5-2.9-4.1
		c-0.4,0-0.7,0.1-1.1,0.1c-1.8,0-3.6-0.6-5-1.7c-1.8-1.3-2.9-3.3-3.2-5.5c-0.1-0.5-0.1-1-0.1-1.4c-1.3-0.2-2.6-0.8-3.7-1.6
		c-1.8-1.3-2.9-3.3-3.2-5.5c-0.3-2.1,0.3-4.3,1.5-6l-3.1-3.9l-0.1,0.1c-1.2,2.1-3.4,3.3-5.6,3.3c-1.1,0-2.1-0.3-3.1-0.8l-6.1-3.4
		c-3.1-1.7-4.2-5.7-2.5-8.8l18.8-33.5c0.8-1.5,2.2-2.6,3.9-3c1.7-0.5,3.4-0.3,4.9,0.6l6.1,3.4c2.9,1.7,4.1,5.3,2.7,8.3
		c2.6,1.4,7,3.5,11,3.7c3-2.7,6-4.6,8-5C375.5,203.1,390.6,201.9,396.5,203.8z"/>
	<path class="st0" d="M360.7,245.1c-0.1-0.6-0.4-1.1-0.9-1.5c-0.4-0.3-0.9-0.5-1.4-0.5c-0.1,0-0.2,0-0.3,0c-0.6,0.1-1.1,0.4-1.5,0.9
		l-8.2,10.7c-0.4,0.5-0.5,1.1-0.5,1.7c0.1,0.6,0.4,1.1,0.9,1.5l0,0c0.5,0.4,1.1,0.5,1.7,0.5c0.6-0.1,1.1-0.4,1.5-0.9l8.2-10.7
		C360.7,246.3,360.8,245.7,360.7,245.1z"/>
	<path class="st0" d="M271.3,225.2L380,333.9l108.7-108.7L380,116.5L271.3,225.2z M379.9,326.6l-101-101l101-101l101,101
		L379.9,326.6z"/>
	<circle class="st0" cx="553.5" cy="124.6" r="8.3"/>
	<path class="st0" d="M612,191.6h63.5V172c0-6.7-4.2-12.6-10.6-14.9c-12.4-4.3-21.2-16.1-21.2-29.9c0-8.2,3.1-15.7,8.2-21.3
		c1.4-1.6,3-3,4.8-4.3c1.3-2.1,2-4.6,1.8-7.3c-0.5-6.1-5.8-11-11.9-10.9c-0.8,0-1.6,0.1-2.4,0.2c-1.7,1.6-3.7,2.8-6,3.3
		c-1,0.2-2,0.3-3,0.3c-4.5,0-8.5-2.3-10.8-5.8c-3-4.5-7.9-7.3-13.2-7.3h-527v302.9h591.3v-39.5H612c-2.5,0-4.5-2-4.5-4.5
		s2-4.5,4.5-4.5h63.5v-18.4H612c-2.5,0-4.5-2-4.5-4.5c0-2.5,2-4.5,4.5-4.5h63.5v-18.4H612c-2.5,0-4.5-2-4.5-4.5c0-2.5,2-4.5,4.5-4.5
		h63.5v-18.4H612c-2.5,0-4.5-2-4.5-4.5c0-2.5,2-4.5,4.5-4.5h63.5V228H612c-2.5,0-4.5-2-4.5-4.5c0-2.5,2-4.5,4.5-4.5h63.5v-18.4H612
		c-2.5,0-4.5-2-4.5-4.5C607.5,193.6,609.5,191.6,612,191.6z M111.1,97.3c0-1.2,0.4-2.2,1.1-2.9c0.7-0.8,1.6-1.1,2.8-1.1
		c1.2,0,2.1,0.4,2.8,1.1c0.7,0.8,1,1.7,1,2.9v10.4h34.8c1.2,0,2.1,0.4,2.9,1.3c0.8,0.8,1.2,1.9,1.2,3.1c0,1.2-0.4,2.3-1.2,3.1
		c-0.8,0.8-1.7,1.2-2.9,1.2h-34.8v10.4c0,1.2-0.4,2.2-1.1,2.9c-0.7,0.8-1.6,1.1-2.8,1.1c-1.1,0-2-0.4-2.7-1.2
		c-0.7-0.8-1.1-1.7-1.1-2.9V97.3z M143.1,349.7h10.4c1.2,0,2.2,0.4,2.9,1.2c0.8,0.8,1.1,1.8,1.1,3c0,1.2-0.4,2.2-1.2,3
		c-0.8,0.8-1.7,1.2-2.9,1.2h-38.4c-1.2,0-2.1-0.4-2.9-1.2c-0.8-0.8-1.2-1.8-1.2-3.1c0-1.2,0.4-2.2,1.1-2.9c0.8-0.8,1.7-1.1,2.9-1.1
		h18.1l-20.9-21.3c-1-1-1.5-2.1-1.5-3.3c0-1,0.4-1.9,1.3-2.6c0.8-0.7,1.7-1.1,2.7-1.1c0.9,0,1.8,0.4,2.6,1.2l13.8,14.5l19.6-14.8
		c0.4-0.3,0.8-0.5,1.3-0.7c0.5-0.2,1-0.3,1.4-0.3c1.2,0,2.2,0.5,3,1.4c0.8,0.9,1.2,2,1.2,3.2c0,0.6-0.1,1.1-0.4,1.7
		c-0.3,0.5-0.6,1-1.1,1.3l-19,14.4L143.1,349.7z M157.1,308.7c-0.8,2.5-2.1,4.8-4.1,7c-1.1,1.2-2.2,1.8-3.5,1.8
		c-1,0-1.9-0.4-2.7-1.1c-0.8-0.8-1.2-1.7-1.2-2.7c0-0.8,0.3-1.6,0.8-2.3c1.5-1.8,2.5-3.5,3.2-5.2c0.7-1.7,1-3.7,1-6
		c0-2.5-0.6-4.6-1.7-6.4c-1.1-1.8-2.5-2.7-4.1-2.7c-2,0-3.6,0.9-4.7,2.7c-1.1,1.8-2,4.6-2.6,8.4c-1.4,9.7-5.9,14.6-13.6,14.6
		c-2.8,0-5.2-0.7-7.3-2.2c-2.1-1.5-3.6-3.5-4.7-6c-1.1-2.5-1.6-5.3-1.6-8.4c0-2.8,0.4-5.4,1.3-7.9c0.8-2.5,2-4.5,3.3-6.1
		c1-1.3,2.2-1.9,3.5-1.9c1,0,1.9,0.4,2.7,1.1c0.8,0.8,1.2,1.6,1.2,2.7c0,0.7-0.2,1.3-0.6,1.8c-0.9,1.2-1.8,2.8-2.6,4.8
		c-0.8,2.1-1.2,3.9-1.2,5.6c0,2.8,0.5,5,1.6,6.5c1,1.5,2.4,2.3,4.1,2.3c1.9,0,3.3-0.8,4.3-2.4c1-1.6,1.8-4,2.4-7.4
		c0.7-3.8,1.5-6.9,2.6-9.1c1-2.3,2.5-4,4.3-5.2s4.2-1.7,7.1-1.7c2.8,0,5.2,0.8,7.3,2.4c2.1,1.6,3.7,3.7,4.9,6.3
		c1.1,2.6,1.7,5.4,1.7,8.4C158.3,303.4,157.9,306.2,157.1,308.7z M155.3,209c0.8,0.3,1.5,0.8,2,1.4c0.5,0.6,0.7,1.3,0.7,2.1
		c0,1.2-0.3,2-0.9,2.6c-0.6,0.6-1.5,0.9-2.5,0.9c-0.4,0-0.8-0.1-1.3-0.2l-39.8-16.6c-0.9-0.4-1.6-0.9-2.1-1.6
		c-0.5-0.7-0.7-1.5-0.6-2.4c0-0.8,0.2-1.5,0.7-2.2c0.5-0.7,1.1-1.2,2-1.5l39-16.4c0.6-0.2,1.1-0.3,1.6-0.3c1.2,0,2.1,0.4,2.8,1.1
		c0.7,0.8,1.1,1.6,1.1,2.6c0,0.8-0.2,1.5-0.7,2.2c-0.5,0.6-1.2,1.1-2,1.5l-8,3.5v19.8L155.3,209z M115.1,249.2
		c-1.2,0-2.1-0.4-2.9-1.2c-0.8-0.8-1.2-1.7-1.2-2.9v-15.2c0-2.3,0.7-4.4,2-6.4c1.4-2,3.2-3.7,5.5-4.9c2.3-1.2,4.8-1.9,7.5-1.9
		c2.7,0,5.1,0.6,7.4,1.9c2.3,1.2,4.1,2.9,5.5,4.9c1.4,2,2,4.2,2,6.4v11.6h12.6c1.2,0,2.2,0.4,2.9,1.1c0.8,0.7,1.1,1.6,1.1,2.8
		c0,1.1-0.4,2-1.2,2.7c-0.8,0.7-1.7,1.1-2.9,1.1H115.1z M141.2,261.5v11.6c0,1.2-0.4,2.1-1.1,2.9c-0.8,0.8-1.7,1.2-2.9,1.2
		c-1.1,0-2-0.4-2.8-1.2c-0.8-0.8-1.1-1.7-1.1-2.9v-11.6c0-1.2,0.4-2.1,1.2-2.9c0.8-0.8,1.7-1.2,2.9-1.2c1.1,0,2,0.4,2.8,1.2
		C140.8,259.4,141.2,260.4,141.2,261.5z M155.5,159.9c-1.8,3.6-4.6,6.5-8.1,8.7c-3.6,2.2-7.9,3.3-13,3.3c-4.5,0-8.6-1-12.2-3.1
		c-3.6-2.1-6.4-4.9-8.4-8.5c-2-3.6-3-7.7-3-12.3c0-3.9,0.9-7.6,2.6-11c0.7-1.4,1.8-2.1,3.4-2.1c0.9,0,1.8,0.3,2.7,1
		c0.9,0.7,1.4,1.6,1.4,2.7c0,0.8-0.2,1.5-0.6,2.3c-1,2.2-1.5,4.5-1.5,7c0,3.1,0.7,5.8,2,8.1c1.3,2.3,3.1,4.1,5.5,5.3
		c2.4,1.2,5.1,1.9,8.1,1.9c5.2,0,9.2-1.4,11.9-4.2c2.7-2.8,4.1-6.5,4.1-11.1c0-2.7-0.5-5.1-1.5-7c-0.4-0.8-0.5-1.5-0.5-2.1
		c0-1.2,0.5-2.1,1.5-2.9c0.8-0.7,1.8-1,2.7-1c0.7,0,1.4,0.2,1.9,0.5c0.6,0.4,1,0.9,1.3,1.5c1.7,3.5,2.6,7.1,2.6,11
		C158.3,152.3,157.3,156.3,155.5,159.9z M466.6,194.6h39.7c1.4-6.4,7.1-11.3,13.9-11.3c7.9,0,14.3,6.4,14.3,14.3
		s-6.4,14.3-14.3,14.3c-6.8,0-12.6-4.8-13.9-11.3h-33.7l24.6,24.6l-25.1,25.1l64.4-0.4c1.4-6.4,7.1-11.3,13.9-11.3
		c7.9,0,14.3,6.4,14.3,14.3s-6.4,14.3-14.3,14.3c-6.8,0-12.5-4.8-13.9-11.2l-70.5,0.5L445.5,277h76.9v53.4
		c6.4,1.4,11.3,7.1,11.3,13.9c0,7.9-6.4,14.3-14.3,14.3s-14.3-6.4-14.3-14.3c0-6.8,4.8-12.6,11.3-13.9V283h-76.9l-23.6,23.6h37.7
		c1.4-6.4,7.1-11.3,13.9-11.3c7.9,0,14.3,6.4,14.3,14.3s-6.4,14.3-14.3,14.3c-6.8,0-12.6-4.8-13.9-11.3h-43.7L380,342.4L350.7,313
		h-72.6v11.1c6.4,1.4,11.3,7.1,11.3,13.9c0,7.9-6.4,14.3-14.3,14.3s-14.3-6.4-14.3-14.3c0-6.8,4.8-12.6,11.3-13.9V307h72.6
		l-22.1-22.1H211.8v28c6.4,1.4,11.3,7.1,11.3,13.9c0,7.9-6.4,14.3-14.3,14.3s-14.3-6.4-14.3-14.3c0-6.8,4.8-12.6,11.3-13.9v-34
		h110.8l-22.1-22.1h-38.6c-1.4,6.4-7.1,11.3-13.9,11.3c-7.9,0-14.3-6.4-14.3-14.3s6.4-14.3,14.3-14.3c6.8,0,12.6,4.8,13.9,11.3h32.6
		l-25.6-25.6l25.3-25.3l-65.4,0.4c-1.4,6.4-7.1,11.3-13.9,11.3c-7.9,0-14.3-6.4-14.3-14.3s6.4-14.3,14.3-14.3
		c6.8,0,12.5,4.8,13.9,11.2l71.5-0.5l20.6-20.6h-77.9v-53.4c-6.4-1.4-11.3-7.1-11.3-13.9c0-7.9,6.4-14.3,14.3-14.3
		s14.3,6.4,14.3,14.3c0,6.8-4.8,12.6-11.3,13.9v47.4h77.9l23.6-23.6h-38.7c-1.4,6.4-7.1,11.3-13.9,11.3c-7.9,0-14.3-6.4-14.3-14.3
		s6.4-14.3,14.3-14.3c6.8,0,12.6,4.8,13.9,11.3h44.7L380,108l30.4,30.4h73.7v-11.1c-6.4-1.4-11.3-7.1-11.3-13.9
		c0-7.9,6.4-14.3,14.3-14.3s14.3,6.4,14.3,14.3c0,6.8-4.8,12.6-11.3,13.9v17.1h-73.7l22.1,22.1h111.9v-28
		c-6.4-1.4-11.3-7.1-11.3-13.9c0-7.9,6.4-14.3,14.3-14.3s14.3,6.4,14.3,14.3c0,6.8-4.8,12.6-11.3,13.9v34H444.5L466.6,194.6z"/>
	<path class="st0" d="M359.3,224.2c-0.1,0.4-0.2,1,0.1,1.2c1.4,1.2,6.6-0.9,12.2-7.8c0.4-0.4,0.9-0.8,1.4-1l5.4-1.7
		c0.9-0.3,1.8-0.1,2.6,0.4l36,23.8c2.3-1.3,4.3-3.3,6.4-5.6l-12.9-23c-5.1,1.6-12.4,0.3-15.8-0.9c-4.2-1.4-17.8-0.6-22.1,0.1
		C370,210.2,360.5,218.8,359.3,224.2z"/>
	<path class="st0" d="M431.6,236c0.1,0.2,0.4,0.3,0.6,0.2l6.1-3.4c0.1-0.1,0.2-0.2,0.2-0.3c0-0.1,0-0.2,0-0.3l-18.8-33.5
		c-0.1-0.1-0.2-0.2-0.4-0.2c-0.1,0-0.1,0-0.2,0.1l-6.1,3.4c-0.2,0.1-0.3,0.4-0.2,0.6L431.6,236z"/>
	<path class="st0" d="M388.9,266.3L388.9,266.3l-8.6-4.6c0.2,1.9-0.2,3.7-1.2,5.3c4.4,1.4,9.3,1.3,10.7,0.7l0.1-0.1
		c0.1-0.1,0.1-0.2,0.2-0.3C389.9,267.1,389.5,266.7,388.9,266.3z"/>
	<path class="st0" d="M373.4,260.7c-0.9-0.7-2.2-0.6-3,0.2l-3.9,5.1c-0.6,1-0.4,2.3,0.6,3c1,0.8,2.5,0.6,3.2-0.4l3.5-4.6
		c0.4-0.5,0.5-1.1,0.5-1.7C374.2,261.6,373.9,261.1,373.4,260.7z"/>
	<path class="st0" d="M367,251.7c-0.4-0.3-0.9-0.5-1.4-0.5c-0.7,0-1.4,0.3-1.8,0.9l-6.3,8.2c-0.8,1-0.6,2.5,0.4,3.2l0,0
		c0.5,0.4,1.1,0.5,1.7,0.5c0.6-0.1,1.1-0.4,1.5-0.9l0.5-0.7c0.1-0.1,0.2-0.3,0.3-0.4l3.5-4.6c0.1-0.1,0.2-0.3,0.3-0.4l1.6-2.1
		C368.2,254,368,252.5,367,251.7z"/>
	<path class="st0" d="M414.9,244.9L378.7,221l-3.2,1c-1,1.2-3.2,3.6-5.9,5.6c-7.1,5.6-11.6,4.3-14.1,2.3c-1.2-1-3.1-3.3-2-7.6
		c0.7-2.6,2.6-5.6,4.9-8.5c-3.5-0.9-6.7-2.5-8.9-3.7l-12.9,22.9l4,5c2.9-1.9,6.8-1.9,9.7,0.3c0.7,0.5,1.2,1.1,1.7,1.7
		c1.3-1.6,3.2-2.7,5.3-3c2.2-0.3,4.4,0.3,6.1,1.6c1.8,1.3,2.9,3.3,3.2,5.5c0,0.4,0.1,0.7,0.1,1.1c1.4,0.2,2.7,0.7,3.9,1.6
		c2.4,1.8,3.5,4.7,3.2,7.5c1.1,0.3,2.3,0.7,3.3,1.5c0.5,0.4,1,0.9,1.4,1.4c0,0,0,0,0,0c0.8-1.5,2.6-2,4.1-1.2l13.4,7.2
		c0.5,0.3,1,0.4,1.6,0.3c0.6-0.1,1-0.4,1.3-0.9l0.2-0.3c0.6-0.9,0.4-2.2-0.5-2.8l-13.9-7.6c-1.5-0.8-2-2.6-1.2-4.1
		c0.8-1.5,2.6-2,4.1-1.2l9.1,5c0.6,0,1.3,0.1,1.9,0.5l5.2,3.5c1,0.7,2.3,0.4,2.9-0.5l0.2-0.3c0.3-0.5,0.4-1,0.3-1.6
		c-0.1-0.4-0.2-0.7-0.5-1l-4.2-2.6l-12.5-7.4c-1.4-0.8-1.9-2.7-1.1-4.1c0.8-1.4,2.7-1.9,4.1-1.1l12.6,7.4l0,0l0.2,0.1l3.9,2.3
		c0.3,0.2,0.5,0.4,0.7,0.6l1.7,1.1c0,0,0.1,0,0.1,0.1c0.5,0.3,1,0.4,1.6,0.3c0.6-0.1,1-0.4,1.3-0.9l0.2-0.3
		C416.1,246.9,415.9,245.6,414.9,244.9z"/>
</g>
</svg>
